PathFileType	4	(X/Y/Z)	C:/Users/opensim2020/Desktop/walking_exp_matlab/subject02_walking07_straight_02.trc	
DataRate	CameraRate	NumFrames	NumMarkers	Units	OrigDataRate	OrigDataStartFrame	OrigNumFrames	
100.00	100.00	4	50	mm	100.00	1357	210	
Frame#	Time	LFHD			RFHD			LBHD			RBHD			C7			T10			CLAV			STRN			RBAK			LSHO			LUPA			LELB			LFRM			LWRA			LWRB			LFIN			RSHO			RUPA			RELB			RFRM			RWRA			RWRB			RFIN			LASI			RASI			LPSI			RPSI			LTHI			LKNE			LTIB			LANK			LHEE			LTOE			RTHI			RKNE			RTIB			RANK			RHEE			RTOE			*39			*40			*41			*42			*43			*44			*45			*46			*47			*48			*49			
		X1	Y1	Z1	X2	Y2	Z2	X3	Y3	Z3	X4	Y4	Z4	X5	Y5	Z5	X6	Y6	Z6	X7	Y7	Z7	X8	Y8	Z8	X9	Y9	Z9	X10	Y10	Z10	X11	Y11	Z11	X12	Y12	Z12	X13	Y13	Z13	X14	Y14	Z14	X15	Y15	Z15	X16	Y16	Z16	X17	Y17	Z17	X18	Y18	Z18	X19	Y19	Z19	X20	Y20	Z20	X21	Y21	Z21	X22	Y22	Z22	X23	Y23	Z23	X24	Y24	Z24	X25	Y25	Z25	X26	Y26	Z26	X27	Y27	Z27	X28	Y28	Z28	X29	Y29	Z29	X30	Y30	Z30	X31	Y31	Z31	X32	Y32	Z32	X33	Y33	Z33	X34	Y34	Z34	X35	Y35	Z35	X36	Y36	Z36	X37	Y37	Z37	X38	Y38	Z38	X39	Y39	Z39	X40	Y40	Z40	X41	Y41	Z41	X42	Y42	Z42	X43	Y43	Z43	X44	Y44	Z44	X45	Y45	Z45	X46	Y46	Z46	X47	Y47	Z47	X48	Y48	Z48	X49	Y49	Z49	X50	Y50	Z50	

27	0.260	-902.58154	524.58563	1732.46533	-1045.71472	536.31104	1716.83887	-884.54260	652.33551	1654.63391	-1025.49426	676.24994	1636.90234	-957.00208	710.00110	1511.78015	-965.91223	753.14435	1235.42944	-954.81390	567.59174	1448.19238	-978.73883	510.15558	1279.87622	-1022.95093	765.82544	1338.31311	-780.29523	629.17584	1479.74744	-706.27039	662.89905	1279.34131	-704.63098	691.73462	1142.27917	-688.12231	714.82379	1014.52258	-710.20062	689.13403	876.14569	-681.05487	735.21771	892.88080	-677.63763	736.29755	824.98090	-1147.54810	641.52026	1488.73621	-1241.34631	645.62115	1300.58276	-1276.71301	596.22754	1164.09558	-1295.32434	525.57037	1064.76318	-1274.74341	435.85355	965.73633	-1310.46033	474.90353	945.46478	-1312.93689	415.13870	905.84503	-863.64294	493.35880	989.08130	-1112.87695	535.04877	958.60083	-908.83215	715.96857	1024.91504	-1024.10754	736.41077	1018.44189	-804.24176	489.54788	682.59698	-842.99591	479.44650	481.66144	-843.03009	508.23242	288.26694	-886.07709	485.58667	71.03944	-935.96216	523.62793	43.71230	-890.08801	328.22482	36.49741	-1177.02710	686.46082	668.15662	-1168.63464	725.50800	466.91235	-1156.63611	868.86597	346.35223	-1112.61072	992.37921	201.47047	-1044.44263	1034.27258	183.12274	-1131.12634	936.31177	45.52795	-982.49982	634.79004	1797.50366																														 
28	0.270	-901.04895	515.31592	1733.64136	-1044.02600	527.01654	1718.19702	-883.24084	643.15015	1655.87109	-1024.19263	667.04205	1638.23572	-955.80640	700.65430	1512.67273	-964.76013	743.19299	1236.38940	-953.66846	557.94012	1449.60315	-977.46606	500.16504	1281.05652	-1022.02264	755.92358	1339.31482	-779.35931	619.72247	1481.31177	-704.80988	649.97107	1280.30151	-703.12439	675.95697	1142.45618	-687.13953	695.30945	1013.79236	-710.63123	666.84216	876.75983	-680.41437	712.71893	891.82959	-677.56165	711.98975	823.82788	-1146.13501	632.22974	1490.12244	-1239.06982	637.29840	1301.57043	-1273.68689	589.91650	1164.27600	-1292.83813	521.08655	1064.00171	-1272.17676	433.25339	963.00793	-1307.92981	472.72192	943.57440	-1309.97815	413.84329	902.34937	-860.97601	483.84836	990.98804	-1109.19031	524.23590	959.25909	-907.81525	706.42664	1025.67639	-1023.27246	726.18768	1019.50989	-802.96381	480.03464	683.80603	-841.69006	475.14297	481.33768	-843.11877	507.42038	288.19656	-886.09338	485.67310	71.03682	-935.68353	523.80658	43.62744	-890.40234	328.09277	36.27991	-1176.77917	670.49762	666.48566	-1170.48206	705.53839	465.50568	-1158.83704	850.21759	347.88681	-1114.03137	978.07452	207.98018	-1045.96704	1021.15283	192.59396	-1129.60229	928.52893	49.81984	-980.85156	625.59076	1798.81396	-3356.87378	2845.85303	1033.86438																											 
29	0.280	-899.14911	506.61478	1735.01392	-1042.56982	517.66223	1719.63135	-881.84485	634.16681	1656.93286	-1022.92981	657.76270	1639.61584	-954.66138	691.22717	1513.81384	-963.60797	733.42883	1237.56836	-952.69641	548.40698	1451.04504	-976.26080	490.44952	1282.60681	-1021.25330	746.57001	1340.68115	-778.41736	610.29419	1482.88000	-703.59003	636.94183	1281.10352	-701.53137	660.10693	1142.61353	-686.04846	675.84912	1013.59161	-711.29059	642.78345	877.14838	-679.59497	689.78333	891.11084	-677.26208	687.00952	823.08997	-1144.91174	623.05469	1491.51221	-1237.44263	629.08820	1302.69067	-1270.98120	583.79285	1164.62769	-1290.17310	516.83319	1062.93909	-1269.90723	430.73334	960.50311	-1305.39453	470.80246	941.69171	-1307.60364	412.82266	899.06616	-858.27283	474.52240	992.40326	-1105.72571	513.78046	960.04468	-906.73462	696.32544	1026.13745	-1022.22931	716.41663	1020.61401	-802.09149	471.40915	684.93347	-840.25293	471.61099	481.23126	-842.63275	506.70239	288.33475	-885.97382	485.66086	71.00610	-935.55750	523.75726	43.70740	-890.69812	328.09857	36.14390	-1176.60376	654.39349	664.88440	-1171.99792	685.14795	464.24323	-1160.82092	831.21796	349.64252	-1114.98315	962.78217	214.41811	-1046.89758	1006.59003	201.74228	-1129.91138	918.85455	55.04048	-979.27216	616.48157	1800.15100	-3356.86133	2845.88232	1034.04480																											 
30	0.290	-897.48761	497.66745	1736.37268	-1041.00647	508.56290	1721.29004	-880.52167	625.13531	1658.14099	-1021.76837	648.58258	1641.07654	-953.44678	681.71582	1515.13782	-962.46124	723.82605	1238.89124	-951.75055	538.87329	1452.54114	-975.30865	480.89767	1284.04968	-1020.45935	737.25439	1342.25366	-777.57458	600.65759	1484.31592	-702.41730	623.98700	1281.99170	-699.61871	644.55621	1143.18152	-684.81946	656.31653	1013.29492	-711.52197	620.54333	877.99371	-679.39508	666.06165	890.37427	-677.03552	661.57233	822.58032	-1143.71985	613.93976	1492.78247	-1235.95593	621.06049	1303.70215	-1268.34277	577.70184	1164.92908	-1288.05151	512.68799	1062.21008	-1267.15723	428.68753	957.36060	-1303.00488	468.98541	939.84229	-1304.68530	412.04919	895.61340	-855.91351	465.45313	993.57904	-1103.43750	504.43625	960.71533	-905.56317	687.01605	1026.93738	-1020.88177	707.03107	1021.79315	-800.69678	464.77499	685.28833	-838.76825	468.61447	481.38156	-841.56842	505.56006	288.77017	-885.84875	485.64301	70.99320	-935.56866	524.13440	43.78939	-890.68347	328.26788	36.16811	-1176.56079	638.26526	663.74078	-1173.50195	664.53278	463.46796	-1162.03320	811.73120	351.71439	-1115.20642	946.80145	220.49442	-1046.75928	990.60822	209.40482	-1131.54968	906.66553	60.53678	-977.86493	607.41431	1801.62854	-3360.15820	2845.03394	1034.03186																											 
